<mxfile><diagram name="ERD"><mxGraphModel><root><mxCell id="0" /><mxCell id="1" parent="0" /><mxCell id="2" value="Users" style="shape=swimlane;startSize=30;swimlaneLine=1;" vertex="1" parent="1"><mxGeometry x="40" y="40" width="160" height="90" as="geometry" /></mxCell><mxCell id="3" value="id&lt;br&gt;username&lt;br&gt;email" style="text;html=1;align=left;verticalAlign=top;spacingLeft=4;" vertex="1" parent="2"><mxGeometry x="0" y="30" width="160" height="60" as="geometry" /></mxCell><mxCell id="4" value="Orders" style="shape=swimlane;startSize=30;swimlaneLine=1;" vertex="1" parent="1"><mxGeometry x="260" y="40" width="160" height="110" as="geometry" /></mxCell><mxCell id="5" value="order_id&lt;br&gt;user_id&lt;br&gt;amount&lt;br&gt;date" style="text;html=1;align=left;verticalAlign=top;spacingLeft=4;" vertex="1" parent="4"><mxGeometry x="0" y="30" width="160" height="80" as="geometry" /></mxCell><mxCell id="6" value="Products" style="shape=swimlane;startSize=30;swimlaneLine=1;" vertex="1" parent="1"><mxGeometry x="480" y="40" width="160" height="90" as="geometry" /></mxCell><mxCell id="7" value="product_id&lt;br&gt;name&lt;br&gt;price" style="text;html=1;align=left;verticalAlign=top;spacingLeft=4;" vertex="1" parent="6"><mxGeometry x="0" y="30" width="160" height="60" as="geometry" /></mxCell></root></mxGraphModel></diagram></mxfile>